<?xml version="1.0" standalone="yes"?>
<svg xmlns="http://www.w3.org/2000/svg" width="300" height="168">
<path style="fill:#fef8e8; stroke:none;" d="M0 0L0 160L118 160L118 144L123 144L121 138C122.724 139.953 123.345 141.463 124 144L127 141C126.847 143.031 126.674 143.591 128 145C126.466 146.023 126.598 145.805 126 147C127.481 148.598 128.061 149.108 130 150C129.01 153.35 129.002 156.514 129 160L255 160L256 156C260.47 161.773 264.359 160.137 271 160C269.764 156.629 268.549 155.576 265 155C264.534 151.73 262.276 148.303 262.782 145.001C263.737 138.765 271.274 134.647 276.463 139.032C280.114 142.118 278.81 146.906 280.251 150.985C283.822 161.101 290.766 160 300 160L300 0L0 0z"/>
<path style="fill:#dbd7af; stroke:none;" d="M87 19C88.731 17.994 90.053 17.4535 92 17C89.3872 15.502 87.6455 15.9876 87 19z"/>
<path style="fill:#f1ebc6; stroke:none;" d="M88 22C91.5752 20.9634 93.0616 19.7767 93 16C89.3884 17.2003 87.8439 18.0383 88 22z"/>
<path style="fill:#cce7e0; stroke:none;" d="M152 16L152 25C153.256 22.0059 153.256 18.9941 152 16z"/>
<path style="fill:#b1cac8; stroke:none;" d="M142 25C145.685 26.6644 148.972 28.3718 153 29L153 25C150.44 25.8603 148.643 25.5448 146 25L146 22L151 20L151 24C151.985 21.6685 151.981 19.5434 152 17C147.543 18.6348 144.127 20.6724 142 25z"/>
<path style="fill:#a3d4d8; stroke:none;" d="M146 22L146 25L152 27L151 20L146 22z"/>
<path style="fill:#bfc7bf; stroke:none;" d="M269 20L269 24C269.71 22.2405 269.71 21.7595 269 20z"/>
<path style="fill:#dad8cb; stroke:none;" d="M270 20C271.458 21.0811 272.248 21.4361 274 22C272.686 20.3821 272.123 20.3067 270 20z"/>
<path style="fill:#ccd2c4; stroke:none;" d="M263 24L263 30L258 30L258 35C258.683 33.4939 258.826 32.6852 259 31L264 31L264 26L269 26C267.059 25.0491 265.102 24.5606 263 24z"/>
<path style="fill:#e8eee2; stroke:none;" d="M268 24C268 26.0854 268.138 25.7241 266 26C268.613 27.498 270.354 27.0124 271 24L268 24z"/>
<path style="fill:#e7bfc0; stroke:none;" d="M34.1852 28.7863C26.1408 31.8145 31.3358 44.1786 39.7716 40.2577C46.5087 37.1264 40.6023 26.3705 34.1852 28.7863z"/>
<path style="fill:#ede6d6; stroke:none;" d="M257 30L257 35C257.83 32.9695 257.83 32.0305 257 30z"/>
<path style="fill:#d5cfaa; stroke:none;" d="M208 32L208 40C209.161 37.2302 209.161 34.7698 208 32z"/>
<path style="fill:#efe8cf; stroke:none;" d="M204 35L204 37L208 37L208 35L204 35z"/>
<path style="fill:#eee8c6; stroke:none;" d="M209 35L209 37L212 37L212 35L209 35z"/>
<path style="fill:#d3cdbd; stroke:none;" d="M110 49L110 53C111.731 51.994 113.053 51.4535 115 51C113.307 49.9376 111.96 49.4804 110 49z"/>
<path style="fill:#d4d7c2; stroke:none;" d="M104 54L104 59C104.83 56.9695 104.83 56.0305 104 54z"/>
<path style="fill:#dadcc7; stroke:none;" d="M106 54C107.314 55.6179 107.877 55.6933 110 56C108.623 55.0886 107.56 54.5962 106 54z"/>
<path style="fill:#e4e7d2; stroke:none;" d="M98 59L98 66L100 66L100 61L105 61L105 59L98 59z"/>
<path style="fill:#e0bebd; stroke:none;" d="M165 69C163.854 74.0125 162.41 78.8496 162 84L176 86C174.158 83.5773 171.785 83.6923 169.379 82.0123C166.393 79.9276 165.443 76.3821 165 73C167.09 73.387 166.711 73.3836 167 71L172 72C169.752 70.2008 167.837 69.5066 165 69z"/>
<path style="fill:#efbac0; stroke:none;" d="M165 73C165.493 80.4217 168.931 83.079 176 84C175.467 79.6229 174.069 75.2906 173 71C172.028 71.3239 171.089 72.1815 170 72C169.269 71.8782 168.251 70.1067 167 71C166.857 71.102 166.552 73.4483 166 74L165 73z"/>
<path style="fill:#b8dab7; stroke:none;" d="M254 83C251.558 81.4703 249.855 81.6084 247 82C248.534 80.9774 248.402 81.1954 249 80C246.109 76.572 247.752 74.4773 251 72C251.98 73.7833 251.908 73.5943 254 74C248.243 65.1533 238.207 82.1127 249.971 83.7585C251.409 83.9597 252.662 83.3799 254 83z"/>
<path style="fill:#e1c2bd; stroke:none;" d="M173 72L176 84C178.441 80.4874 178.818 76.2199 179 72L173 72z"/>
<path style="fill:#a7e2b4; stroke:none;" d="M247 81C254.696 83.8354 258.406 79.1197 255 72C253.084 72.8402 252.777 72.9847 251 72C244.747 73.0422 245.995 77.9953 249 81L247 81z"/>
<path style="fill:#e4f3dc; stroke:none;" d="M257 75L256 82C257.827 79.5884 258.15 77.8312 257 75z"/>
<path style="fill:#dbe7d1; stroke:none;" d="M32 84L32 88L34 88L34 84L32 84z"/>
<path style="fill:#d7d0c0; stroke:none;" d="M27 88C28.769 88.7789 30.0359 88.9124 32 89L32 93C32.683 91.4939 32.8259 90.6852 33 89L37 89C33.8367 87.6726 30.4144 88.0004 27 88z"/>
<path style="fill:#f7e9aa; stroke:none;" d="M93 96C95.0521 96.8742 96.7472 96.9528 99 97C96.9479 96.1257 95.2528 96.0472 93 96z"/>
<path style="fill:#eed790; stroke:none;" d="M89 108C90.6713 104.17 91.7054 100.648 94 97C89.1671 99.4375 89.0178 102.958 89 108z"/>
<path style="fill:#f4cb78; stroke:none;" d="M94.0586 98.0316C85.6781 102.502 90.9983 116.252 100.566 111.397C106.686 108.291 102.454 93.5537 94.0586 98.0316z"/>
<path style="fill:#ebd487; stroke:none;" d="M103 100L103 110C104.9 106.829 104.969 103.646 105 100L103 100z"/>
<path style="fill:#f7e3a8; stroke:none;" d="M88 102L88 107C88.8299 104.97 88.8299 104.03 88 102z"/>
<path style="fill:#fff6cf; stroke:none;" d="M105 102C104.665 105.71 103.391 108.595 102 112C106.634 110.356 108.78 105.667 105 102z"/>
<path style="fill:#d3ca8f; stroke:none;" d="M92 112C94.6127 113.098 97.1645 112.993 100 113C97.3873 111.902 94.8355 112.007 92 112z"/>
<path style="fill:#edeec2; stroke:none;" d="M93 113C94.769 113.779 96.0359 113.912 98 114C96.231 113.221 94.964 113.088 93 113z"/>
<path style="fill:#cccfc4; stroke:none;" d="M210.667 113.333C210.222 113.778 211.278 113.722 211.333 113.667C211.778 113.222 210.722 113.278 210.667 113.333z"/>
<path style="fill:#d8d8cb; stroke:none;" d="M212 114C212.307 116.123 212.382 116.686 214 118C213.436 116.248 213.081 115.458 212 114z"/>
<path style="fill:#c5c3b6; stroke:none;" d="M214 118C215.506 118.683 216.315 118.826 218 119C216.494 118.317 215.685 118.174 214 118z"/>
<path style="fill:#dedbcc; stroke:none;" d="M218 118L219 123C219.791 120.693 219.475 119.935 218 118z"/>
<path style="fill:#dbdcca; stroke:none;" d="M162 122L162 127C164.205 126.906 165.894 126.644 168 126C166.154 125.532 164.931 125.699 163 126L163 123L168 124C165.943 122.418 164.612 122.174 162 122z"/>
<path style="fill:#e7e7db; stroke:none;" d="M221 122C222.334 123.902 222.663 123.966 225 124C223.457 122.733 222.952 122.511 221 122z"/>
<path style="fill:#c4c1b2; stroke:none;" d="M224 124L224 127C224.696 125.446 224.696 125.554 224 124z"/>
<path style="fill:#b1cfd1; stroke:none;" d="M37 128C35.7425 133.282 36 138.6 36 144C41.9128 143.947 46.5533 142.113 52 140C48.3996 135.549 43.4125 132.636 40 128L37 128z"/>
<path style="fill:#cee2d9; stroke:none;" d="M35 133L35 136C35.6961 134.446 35.6961 134.554 35 133z"/>
<path style="fill:#a2d4db; stroke:none;" d="M38 133C37.0096 136.35 37.0019 139.514 37 143C39.2049 142.906 40.8941 142.644 43 142C41.5024 141.521 41.6498 141.6 40 142C41.6758 137.935 42.1425 135.294 38 133z"/>
<path style="fill:#bfcac4; stroke:none;" d="M35 136C34.313 139.7 34.0104 143.237 34 147L40 145C38.494 144.317 37.6852 144.174 36 144C35.9928 141.165 36.0977 138.613 35 136z"/>
<path style="fill:#fff8e8; stroke:none;" d="M265 155C268.192 155.933 269.386 157.098 271 160C265.055 160.049 260.623 161.57 257 156C255.733 157.543 255.511 158.048 255 160L129 160C129.01 156.545 129.198 153.368 130 150C128.543 148.897 128.103 148.457 127 147C126.317 148.506 126.174 149.315 126 151C125.438 149.199 125.176 147.878 125 146L121 146L125 145C124.053 142.147 123.419 139.814 121 138C121.315 140.33 121.902 141.918 123 144L118 144L118 160L0 160L0 168L300 168L300 160C290.97 160 284.311 160.707 280.644 150.985C279.051 146.762 280.638 141.392 276.467 138.434C270.863 134.459 263.331 138.631 262.448 145.001C261.969 148.458 264.189 151.733 265 155z"/>
<path style="fill:#f1dab2; stroke:none;" d="M270 140L273 139C271.222 138.045 270.979 138.234 270 140z"/>
<path style="fill:#e6cf88; stroke:none;" d="M270.957 139.706C268.306 140.007 264.334 142.187 263.917 145.093C263.499 148.017 267.684 153.602 270.899 153.208C278.503 152.274 279.075 138.785 270.957 139.706z"/>
<path style="fill:#e8e3d3; stroke:none;" d="M125 141L125 145C126.267 143.457 126.489 142.952 127 141L125 141z"/>
<path style="fill:#f6cf74; stroke:none;" d="M269 141C267.897 142.457 267.457 142.897 266 144C267.714 149.597 274.178 149.507 276 144C273.703 143.326 273.226 143.035 272 141L269 141z"/>
<path style="fill:#d0eae6; stroke:none;" d="M45 142C46.2484 142.685 46.5484 142.749 48 143C46.7516 142.315 46.4516 142.251 45 142z"/>
<path style="fill:#d8cfc0; stroke:none;" d="M121 145C122.506 145.683 123.315 145.826 125 146L125 151C125.967 149.192 126.698 147.582 128 146C125.668 145.015 123.543 145.019 121 145z"/>
</svg>
